<?xml version="1.0" encoding="iso-8859-1"?>
<!-- Uploaded to: SVG Repo, www.svgrepo.com, Generator: SVG Repo Mixer Tools -->
<svg version="1.1" id="Layer_1" xmlns="http://www.w3.org/2000/svg" xmlns:xlink="http://www.w3.org/1999/xlink" 
	 viewBox="0 0 512 512" xml:space="preserve">
<path style="fill:#F1D849;" d="M256,449.225l-93.363-80.41V93.363C162.637,41.883,204.52,0,256,0s93.363,41.883,93.363,93.363
	v275.454L256,449.225z"/>
<path style="fill:#E8BA44;" d="M256,449.225c0,0,0-418.335,0-449.225c51.48,0,93.363,41.883,93.363,93.363v275.454L256,449.225z"/>
<path style="fill:#CA3486;" d="M348.517,80.987C342.441,35.339,303.283,0,256,0s-86.441,35.339-92.517,80.987
	C197.353,110.158,256,160.668,256,160.668L348.517,80.987z"/>
<g>
	<path style="fill:#952967;" d="M348.517,80.987C342.441,35.339,303.283,0,256,0c0,33.489,0,160.668,0,160.668L348.517,80.987z"/>
	<path style="fill:#952967;" d="M256,335.11v114.116l93.363-80.41V254.701C314.604,284.637,256,335.11,256,335.11z"/>
</g>
<path style="fill:#CA3486;" d="M256,265.299c0,0-61.803-53.227-93.363-80.408v69.81L256,335.11V265.299z"/>
<rect x="239.304" y="81.197" style="fill:#5B5B5F;" width="33.391" height="430.803"/>
</svg>