<?xml version="1.0" encoding="iso-8859-1"?>
<!-- Uploaded to: SVG Repo, www.svgrepo.com, Generator: SVG Repo Mixer Tools -->
<svg height="800px" width="800px" version="1.1" id="Capa_1" xmlns="http://www.w3.org/2000/svg" xmlns:xlink="http://www.w3.org/1999/xlink" 
	 viewBox="0 0 464.968 464.968" xml:space="preserve">
<g>
	<path style="fill:#E43017;" d="M434.171,68.49c-10.208-10.208-23.78-15.829-38.216-15.829c-14.436,0-28.008,5.622-38.215,15.829
		L97.048,329.182c10.118,3.248,20.091,6.941,29.894,11.047l23.825-23.797c-2.066-2.07-2.811-5.254-1.638-8.132
		c1.564-3.835,5.942-5.678,9.776-4.114c0.973,0.396,1.935,0.813,2.904,1.218l23.187-23.159c-2.082-2.07-2.836-5.264-1.659-8.152
		c1.564-3.837,5.943-5.68,9.776-4.114c0.981,0.4,1.959,0.814,2.939,1.223l24.437-24.407c-2.02-2.073-2.74-5.22-1.577-8.071
		c1.565-3.834,5.941-5.675,9.778-4.109c0.942,0.385,1.878,0.784,2.816,1.176l23.82-23.791c-2.035-2.072-2.763-5.232-1.596-8.092
		c1.565-3.835,5.944-5.675,9.778-4.109c0.952,0.388,1.898,0.789,2.847,1.185l23.807-23.778c-2.052-2.072-2.789-5.245-1.617-8.116
		c1.565-3.835,5.943-5.675,9.778-4.11c0.96,0.392,1.91,0.811,2.867,1.211l23.73-23.701c-2.075-2.079-2.817-5.279-1.625-8.164
		c1.581-3.828,5.964-5.65,9.795-4.068c19.963,8.247,39.56,18.431,58.278,30.284c15.947,1.355,31.463-4.282,42.8-15.619
		C444.379,134.714,450,121.142,450,106.706S444.379,78.698,434.171,68.49z"/>
	<path style="fill:#FF9926;" d="M231.969,288.503c3.63,1.996,4.954,6.556,2.958,10.186c-1.365,2.483-3.932,3.888-6.579,3.888
		c-1.222,0-2.461-0.299-3.607-0.93c-12.026-6.613-24.572-12.595-37.289-17.779c-0.948-0.386-1.772-0.945-2.455-1.625l-23.187,23.159
		c35.557,14.845,68.439,34.999,97.891,60.032l17.435-28.624c-8.544-6.894-17.444-13.43-26.527-19.478
		c-3.448-2.296-4.382-6.952-2.086-10.399s6.953-4.382,10.399-2.086c8.914,5.936,17.658,12.321,26.083,19.044l18.17-29.833
		c-24.663-18.593-51.595-33.904-80.151-45.56c-0.985-0.402-1.835-0.991-2.533-1.707l-24.437,24.407
		C208.297,276.315,220.367,282.122,231.969,288.503z"/>
	<path style="fill:#FF9926;" d="M233.754,408.036l18.043-29.623c-29.496-25.406-62.624-45.691-98.552-60.337
		c-0.957-0.39-1.79-0.956-2.477-1.644l-23.825,23.797C165.967,356.571,202.246,379.552,233.754,408.036z"/>
	<path style="fill:#FF9926;" d="M361.567,198.193l17.021-27.945c-16.54-10.131-33.739-18.907-51.222-26.129
		c-0.944-0.39-1.764-0.951-2.443-1.631l-23.73,23.701C322.218,174.978,342.487,185.705,361.567,198.193z"/>
	<path style="fill:#FF9926;" d="M311.015,281.189l17.551-28.815c-22.038-15.516-45.796-28.516-70.723-38.69
		c-0.976-0.398-1.82-0.98-2.514-1.686l-23.82,23.791C259.759,247.591,286.459,262.831,311.015,281.189z"/>
	<path style="fill:#FF9926;" d="M336.385,239.536l17.375-28.525c-19.264-12.646-39.786-23.445-61.102-32.145
		c-0.965-0.394-1.803-0.966-2.492-1.662l-23.807,23.778C290.986,211.274,314.497,224.213,336.385,239.536z"/>
	<path d="M444.777,57.884c-26.921-26.921-70.724-26.921-97.644,0L77.679,327.338c-0.068,0.066-0.135,0.133-0.201,0.202L2.197,402.82
		c-2.929,2.929-2.929,7.678,0,10.606c2.929,2.929,7.678,2.929,10.606,0l72.252-72.251c54.018,16.038,104.127,45.033,145.163,84.035
		c1.403,1.333,3.256,2.064,5.167,2.064c0.328,0,0.657-0.021,0.986-0.065c2.248-0.298,4.24-1.597,5.419-3.534l26.027-42.731
		c0.051-0.08,0.1-0.161,0.148-0.242l25.298-41.535c0.051-0.081,0.101-0.162,0.149-0.245l26.007-42.699
		c0.049-0.077,0.095-0.153,0.141-0.231l25.393-41.69c0.029-0.046,0.057-0.092,0.084-0.138l25.198-41.37
		c0.049-0.077,0.097-0.155,0.143-0.234l22.472-36.894c19.385,0.886,38.091-6.304,51.927-20.14
		C471.698,128.607,471.698,84.804,444.777,57.884z M434.171,144.921c-11.337,11.337-26.853,16.974-42.8,15.619
		c-18.718-11.853-38.315-22.037-58.278-30.284c-3.831-1.582-8.214,0.24-9.795,4.068c-1.192,2.885-0.45,6.084,1.625,8.164
		c0.679,0.68,1.499,1.242,2.443,1.631c17.482,7.223,34.682,15.999,51.222,26.129l-17.021,27.945
		c-19.08-12.489-39.349-23.216-60.374-32.004c-0.957-0.4-1.907-0.819-2.867-1.211c-3.834-1.565-8.213,0.274-9.778,4.11
		c-1.172,2.87-0.435,6.044,1.617,8.116c0.69,0.696,1.528,1.268,2.492,1.662c21.316,8.7,41.838,19.499,61.102,32.145l-17.375,28.525
		c-21.888-15.323-45.399-28.262-70.027-38.554c-0.948-0.396-1.895-0.797-2.847-1.185c-3.834-1.566-8.212,0.274-9.778,4.109
		c-1.167,2.86-0.439,6.02,1.596,8.092c0.694,0.707,1.539,1.288,2.514,1.686c24.926,10.174,48.685,23.174,70.723,38.69
		l-17.551,28.815c-24.556-18.358-51.256-33.598-79.506-45.4c-0.939-0.392-1.874-0.791-2.816-1.176
		c-3.837-1.566-8.213,0.275-9.778,4.109c-1.164,2.851-0.443,5.999,1.577,8.071c0.698,0.716,1.548,1.305,2.533,1.707
		c28.556,11.656,55.488,26.967,80.151,45.56l-18.17,29.833c-8.424-6.724-17.168-13.109-26.083-19.044
		c-3.447-2.296-8.104-1.362-10.399,2.086s-1.362,8.104,2.086,10.399c9.083,6.048,17.983,12.583,26.527,19.478l-17.435,28.624
		c-29.451-25.034-62.334-45.188-97.891-60.032c-0.969-0.405-1.931-0.821-2.904-1.218c-3.834-1.564-8.212,0.279-9.776,4.114
		c-1.173,2.879-0.429,6.062,1.638,8.132c0.687,0.688,1.52,1.254,2.477,1.644c35.928,14.646,69.056,34.932,98.552,60.337
		l-18.043,29.623c-31.508-28.484-67.786-51.466-106.811-67.808c-9.803-4.105-19.776-7.798-29.894-11.047L357.74,68.49
		c10.208-10.208,23.78-15.829,38.215-15.829c14.436,0,28.008,5.622,38.216,15.829S450,92.27,450,106.706
		S444.379,134.714,434.171,144.921z"/>
	<path d="M224.742,301.647c1.146,0.63,2.385,0.93,3.607,0.93c2.647,0,5.213-1.404,6.579-3.888c1.996-3.629,0.672-8.19-2.958-10.186
		c-11.603-6.381-23.672-12.188-35.915-17.302c-0.979-0.409-1.957-0.823-2.939-1.223c-3.833-1.566-8.212,0.277-9.776,4.114
		c-1.177,2.888-0.423,6.082,1.659,8.152c0.683,0.679,1.508,1.238,2.455,1.625C200.17,289.052,212.715,295.033,224.742,301.647z"/>
</g>
</svg>