<?xml version="1.0" encoding="utf-8"?>
<!-- Uploaded to: SVG Repo, www.svgrepo.com, Generator: SVG Repo Mixer Tools -->
<svg width="800px" height="800px" viewBox="0 0 1024 1024" class="icon"  version="1.1" xmlns="http://www.w3.org/2000/svg"><path d="M768 0v480l-352-160v160L64 320v704h896V0z" fill="#EAEAEA" /><path d="M768 0h192v64h-192zM768 128h192v64h-192zM768 256h192v64h-192zM416 374.464L89.44 225.056a29.952 29.952 0 0 0-39.744 14.784l-15.008 32.768a30.08 30.08 0 0 0 14.816 39.744L416 480v-105.536zM768 374.464L441.44 225.056a29.952 29.952 0 0 0-39.744 14.784l-15.008 32.736a30.08 30.08 0 0 0 14.816 39.744L768 480v-105.536z" fill="#EF4D4D" /><path d="M352 576h128v128h-128zM160 576h128v128H160zM544 576h128v128h-128z" fill="#469FCC" /><path d="M160 576h128v32H160zM352 576h128v32h-128zM544 576h128v32h-128z" fill="" /><path d="M416 318.976v32L768 512v-32zM64 350.304l352 161.024v-32L64 318.304z" fill="" /><path d="M768 0h96v1024h-96z" fill="" /><path d="M238.24 1024A126.656 126.656 0 0 0 256 960a128 128 0 0 0-256 0c0 23.424 6.752 45.088 17.76 64h220.48zM896 832a127.744 127.744 0 0 0-116.224 75.04A94.848 94.848 0 0 0 736 896a96 96 0 0 0-96 96c0 11.296 2.304 21.952 5.888 32h360.384A126.944 126.944 0 0 0 1024 960a128 128 0 0 0-128-128z" fill="#3AAD73" /><path d="M779.776 907.04A94.848 94.848 0 0 0 736 896a96 96 0 0 0-96 96c0 11.296 2.304 21.952 5.888 32h139.872A126.656 126.656 0 0 1 768 960c0-18.944 4.384-36.768 11.776-52.96z" fill="" /></svg>