<?xml version="1.0" ?>
<!-- Uploaded to: SVG Repo, www.svgrepo.com, Generator: SVG Repo Mixer Tools -->
<svg width="800px" height="800px" viewBox="0 0 64 64" xmlns="http://www.w3.org/2000/svg">
<defs>
<style>.cls-1{fill:#92d39d;}.cls-2{fill:#efc89d;}.cls-3{fill:#aaddb4;}.cls-4{fill:#f0f4f7;}.cls-5{fill:#ebb87f;}</style>
</defs>
<g id="Cthulhu">
<path class="cls-1" d="M19.2,24.37c0,5.8-1.06,9.5-2.36,11.54s-2.63,2.6-4.38,2.6a2.5,2.5,0,0,0,0,5,10,10,0,0,0,6.74-2.69l3.26-8.22Z" id="path239510-0"/>
<path class="cls-1" d="M44.8,24.37c0,5.8,1.06,9.5,2.36,11.54s2.63,2.6,4.38,2.6a2.5,2.5,0,0,1,0,5,10,10,0,0,1-6.74-2.69L41.54,32.6Z" id="path239730-4"/>
<path class="cls-2" d="M20.12,46.47,19,47.1c-2.73,1.59-5,3.87-5.6,7A1.62,1.62,0,0,0,15,56H49a1.61,1.61,0,0,0,1.58-1.93c-.61-3.1-2.86-5.38-5.59-7l-1.08-.63-2-18-21-.31Z" id="path241086-9"/>
<path class="cls-3" d="M32,8A12.77,12.77,0,0,0,19.2,20.8V44.49a2.56,2.56,0,1,0,5.12,0V34.29a2.56,2.56,0,0,1,5.12,0v3.49a2.56,2.56,0,0,0,5.12,0V34.29a2.56,2.56,0,0,1,5.12,0v10.2a2.56,2.56,0,1,0,5.12,0V20.8A12.77,12.77,0,0,0,32,8Z" id="rect229616-4"/>
<path class="cls-4" d="M36.59,17.78A3.17,3.17,0,1,0,39.75,21,3.18,3.18,0,0,0,36.59,17.78Z" id="path187877"/>
<path class="cls-4" d="M27.41,17.78A3.17,3.17,0,1,0,30.58,21,3.18,3.18,0,0,0,27.41,17.78Z" id="path187681"/>
<path class="cls-5" d="M23.35,49.2a1,1,0,0,0,0,2h5.1a1.3,1.3,0,0,1,1.12.65,1,1,0,0,0,1.73-1,3.3,3.3,0,0,0-2.85-1.65Z" id="path131588-6-3-7-2"/>
<path class="cls-5" d="M35.55,49.2a3.3,3.3,0,0,0-2.85,1.65,1,1,0,0,0,.36,1.37h0a1,1,0,0,0,1.37-.37h0a1.3,1.3,0,0,1,1.12-.65h5.1a1,1,0,0,0,0-2Z" id="path132344-1-6-8-9"/>
<path class="cls-5" d="M29.58,44.13a1,1,0,0,0-.77,0,1,1,0,0,0-.53,1.31l1,2.39a1,1,0,0,0,1.85-.78l-1-2.39A1,1,0,0,0,29.58,44.13Z" id="path133885-0-6-3"/>
<path class="cls-5" d="M34.42,44.13a1,1,0,0,0-.54.54l-1,2.39a1,1,0,0,0,1.85.78l1-2.39a1,1,0,0,0-.53-1.31A1,1,0,0,0,34.42,44.13Z" id="path133967-6-8-9"/>
</g>
</svg>