<?xml version="1.0" encoding="iso-8859-1"?>
<!-- Uploaded to: SVG Repo, www.svgrepo.com, Generator: SVG Repo Mixer Tools -->
<svg height="800px" width="800px" version="1.1" id="Layer_1" xmlns="http://www.w3.org/2000/svg" xmlns:xlink="http://www.w3.org/1999/xlink" 
	 viewBox="0 0 512 512" xml:space="preserve">
<ellipse style="fill:#CCCCCC;" cx="255.996" cy="432.009" rx="236.62" ry="79.975"/>
<g>
	<circle style="fill:#333333;" cx="255.988" cy="28.752" r="28.736"/>
	<path style="fill:#333333;" d="M288.068,68.967h-64.159c-22.656,0.024-41.015,18.384-41.039,41.039v80.463
		c0.192,8.24,7.024,14.768,15.272,14.576c7.976-0.184,14.392-6.608,14.576-14.576v-72.167h8.96v220.253
		c0.192,8.24,7.024,14.768,15.272,14.576c7.976-0.184,14.392-6.608,14.576-14.576V216.173h8.944v122.398
		c-0.192,8.24,6.336,15.08,14.576,15.272c8.24,0.192,15.08-6.336,15.272-14.576c0.008-0.232,0.008-0.464,0-0.688V118.294h8.96
		v72.167c0.192,8.24,7.024,14.768,15.272,14.576c7.976-0.184,14.392-6.608,14.576-14.576v-80.463
		C329.075,87.351,310.715,69.007,288.068,68.967z"/>
</g>
<g>
	<circle style="fill:#E21B1B;" cx="73.119" cy="105.382" r="28.736"/>
	<path style="fill:#E21B1B;" d="M105.198,145.614H41.039C18.392,145.646,0.032,163.989,0,186.637V267.1
		c0.192,8.24,7.024,14.768,15.272,14.576c7.976-0.184,14.392-6.608,14.576-14.576v-72.159h8.96V415.21
		c0.192,8.24,7.024,14.768,15.272,14.576c7.968-0.176,14.392-6.6,14.576-14.576V292.811h8.944v122.398
		c-0.192,8.24,6.336,15.08,14.576,15.272s15.08-6.336,15.272-14.576c0.008-0.232,0.008-0.464,0-0.688V194.925h8.96v72.167
		c0.192,8.24,7.024,14.768,15.272,14.576c7.976-0.184,14.392-6.608,14.576-14.576v-80.455
		C146.198,163.997,127.846,145.654,105.198,145.614z"/>
</g>
<g>
	<circle style="fill:#999999;" cx="438.865" cy="105.382" r="28.736"/>
	<path style="fill:#999999;" d="M470.945,145.614h-64.159c-22.656,0.024-41.015,18.384-41.039,41.039V267.1
		c-0.192,8.24,6.336,15.08,14.576,15.272c8.24,0.192,15.08-6.336,15.272-14.576c0.008-0.232,0.008-0.464,0-0.688v-72.159h8.96
		V415.21c-0.192,8.24,6.336,15.08,14.576,15.272c8.24,0.192,15.08-6.336,15.272-14.576c0.008-0.232,0.008-0.464,0-0.688V292.811
		h8.944v122.398c0.192,8.24,7.024,14.768,15.272,14.576c7.976-0.184,14.392-6.608,14.576-14.576V194.925h8.96v72.167
		c0.192,8.24,7.024,14.768,15.272,14.576c7.976-0.184,14.392-6.608,14.576-14.576v-80.455
		C511.944,163.997,493.592,145.654,470.945,145.614z"/>
</g>
</svg>