<?xml version="1.0" encoding="iso-8859-1"?>
<!-- Uploaded to: SVG Repo, www.svgrepo.com, Generator: SVG Repo Mixer Tools -->
<svg height="800px" width="800px" version="1.1" id="Layer_1" xmlns="http://www.w3.org/2000/svg" xmlns:xlink="http://www.w3.org/1999/xlink" 
	 viewBox="0 0 512.427 512.427" xml:space="preserve">
<g transform="translate(1 1)">
	<path style="fill:#556080;" d="M409.027,356.76c0,70.827-57.173,128-128,128s-128-57.173-128-128s57.173-128,128-128
		S409.027,285.933,409.027,356.76"/>
	<path style="fill:#434C6D;" d="M281.027,100.76v128c58.88,0,108.373,40.107,122.88,93.867h98.987V100.76H281.027z"/>
	<path style="fill:#25B99A;" d="M281.027,228.76v-26.453L180.333,25.667L7.96,322.627h150.187
		C172.653,268.867,222.147,228.76,281.027,228.76"/>
	<path d="M281.027,493.293c-75.093,0-136.533-61.44-136.533-136.533s61.44-136.533,136.533-136.533S417.56,281.667,417.56,356.76
		S356.12,493.293,281.027,493.293z M281.027,237.293c-65.707,0-119.467,53.76-119.467,119.467s53.76,119.467,119.467,119.467
		s119.467-53.76,119.467-119.467S346.733,237.293,281.027,237.293z"/>
	<path d="M502.893,331.16h-98.987c-3.413,0-6.827-2.56-8.533-5.973c-13.653-52.053-60.587-87.893-114.347-87.893
		c-5.12,0-8.533-3.413-8.533-8.533v-128c0-5.12,3.413-8.533,8.533-8.533h221.867c5.12,0,8.533,3.413,8.533,8.533v221.867
		C511.427,327.747,508.013,331.16,502.893,331.16z M410.733,314.093h83.627v-204.8h-204.8v110.933
		C345.027,223.64,392.813,261.187,410.733,314.093z"/>
	<path d="M158.147,331.16H7.96c-3.413,0-5.973-1.707-7.68-4.267s-1.707-5.973,0-8.533L172.653,21.4
		c1.707-2.56,4.267-4.267,7.68-4.267l0,0c3.413,0,5.973,1.707,7.68,4.267l100.693,176.64c0.853,1.707,0.853,2.56,0.853,4.267v26.453
		c0,5.12-3.413,8.533-8.533,8.533c-53.76,0-100.693,35.84-115.2,87.893C164.973,328.6,161.56,331.16,158.147,331.16z
		 M22.467,314.093H151.32c17.067-52.907,65.707-90.453,121.173-93.867v-16.213l-92.16-161.28L22.467,314.093z"/>
</g>
</svg>