<?xml version="1.0" encoding="iso-8859-1"?>
<!-- Uploaded to: SVG Repo, www.svgrepo.com, Generator: SVG Repo Mixer Tools -->
<svg version="1.1" id="Layer_1" xmlns="http://www.w3.org/2000/svg" xmlns:xlink="http://www.w3.org/1999/xlink" 
	 viewBox="0 0 512.003 512.003" xml:space="preserve">
<path style="fill:#4D4D4D;" d="M256.003,108.558c-81.424,0-147.44,66.016-147.44,147.44c0,81.436,66.016,147.44,147.44,147.44
	l1.903-0.023c80.548-1.026,121.502-66.627,121.502-147.417C379.408,174.574,337.427,108.558,256.003,108.558z"/>
<g>
	<circle style="fill:#F2F2F2;" cx="256.002" cy="329.722" r="29.859"/>
	<path style="fill:#F2F2F2;" d="M256.003,108.558c81.424,0,147.44,66.016,147.44,147.44c0,80.79-64.989,146.391-145.537,147.417
		c39.836-1.015,71.817-33.619,71.817-73.697c0-40.712-33.008-73.72-73.72-73.72s-73.72-33.008-73.72-73.72
		S215.291,108.558,256.003,108.558z M285.862,182.278c0-16.481-13.367-29.848-29.859-29.848s-29.859,13.367-29.859,29.848
		c0,16.492,13.367,29.859,29.859,29.859S285.862,198.771,285.862,182.278z"/>
</g>
<g>
	<rect x="218.484" y="62.567" style="fill:#4D4D4D;" width="75.035" height="17.3"/>
	<rect x="218.484" style="fill:#4D4D4D;" width="75.035" height="17.3"/>
	<rect x="218.484" y="31.289" style="fill:#4D4D4D;" width="75.035" height="17.3"/>
	<rect x="262.991" y="494.704" style="fill:#4D4D4D;" width="30.528" height="17.3"/>
	<rect x="218.484" y="494.704" style="fill:#4D4D4D;" width="30.517" height="17.3"/>
	<rect x="262.991" y="432.136" style="fill:#4D4D4D;" width="30.528" height="17.3"/>
	<rect x="218.484" y="432.136" style="fill:#4D4D4D;" width="30.517" height="17.3"/>
	<rect x="262.991" y="463.414" style="fill:#4D4D4D;" width="30.528" height="17.3"/>
	<rect x="218.484" y="463.414" style="fill:#4D4D4D;" width="30.517" height="17.3"/>
	
		<rect x="56.994" y="80.892" transform="matrix(-0.7071 -0.7071 0.7071 -0.7071 43.7875 211.2454)" style="fill:#4D4D4D;" width="17.3" height="31.324"/>
	
		<rect x="87.89" y="49.981" transform="matrix(-0.7071 -0.7071 0.7071 -0.7071 118.3788 180.3428)" style="fill:#4D4D4D;" width="17.3" height="31.347"/>
	
		<rect x="116.693" y="87.82" transform="matrix(-0.7071 -0.7071 0.7071 -0.7071 125.3462 302.5941)" style="fill:#4D4D4D;" width="17.3" height="75.034"/>
	
		<rect x="94.571" y="65.705" transform="matrix(-0.7071 -0.7071 0.7071 -0.7071 103.2202 249.1993)" style="fill:#4D4D4D;" width="17.3" height="75.034"/>
	
		<rect x="362.277" y="387.126" transform="matrix(-0.7071 -0.7071 0.7071 -0.7071 348.6784 949.2068)" style="fill:#4D4D4D;" width="17.3" height="30.527"/>
	
		<rect x="393.77" y="355.654" transform="matrix(-0.7071 -0.7071 0.7071 -0.7071 424.6989 917.7401)" style="fill:#4D4D4D;" width="17.3" height="30.516"/>
	
		<rect x="422.264" y="393.378" transform="matrix(-0.7071 -0.7071 0.7071 -0.7071 430.9272 1040.285)" style="fill:#4D4D4D;" width="17.3" height="75.034"/>
	
		<rect x="384.409" y="409.252" transform="matrix(-0.7071 -0.7071 0.7071 -0.7071 370.8152 1002.6274)" style="fill:#4D4D4D;" width="17.3" height="30.527"/>
	
		<rect x="415.871" y="377.788" transform="matrix(-0.7071 -0.7071 0.7071 -0.7071 446.7766 971.1526)" style="fill:#4D4D4D;" width="17.3" height="30.516"/>
	
		<rect x="386.447" y="132.147" transform="matrix(-0.7071 -0.7071 0.7071 -0.7071 586.8848 524.69)" style="fill:#4D4D4D;" width="31.324" height="17.3"/>
	
		<rect x="355.547" y="101.234" transform="matrix(-0.7071 -0.7071 0.7071 -0.7071 556.0123 450.0764)" style="fill:#4D4D4D;" width="31.347" height="17.3"/>
	
		<rect x="393.382" y="72.436" transform="matrix(-0.7071 -0.7071 0.7071 -0.7071 678.2538 443.1131)" style="fill:#4D4D4D;" width="75.034" height="17.3"/>
	
		<rect x="371.267" y="94.557" transform="matrix(-0.7071 -0.7071 0.7071 -0.7071 624.8591 465.2391)" style="fill:#4D4D4D;" width="75.034" height="17.3"/>
	
		<rect x="81.592" y="437.987" transform="matrix(-0.7071 -0.7071 0.7071 -0.7071 -150.4777 830.9435)" style="fill:#4D4D4D;" width="30.527" height="17.3"/>
	
		<rect x="50.108" y="406.505" transform="matrix(-0.7071 -0.7071 0.7071 -0.7071 -181.9722 754.9346)" style="fill:#4D4D4D;" width="30.516" height="17.3"/>
	
		<rect x="87.82" y="378.007" transform="matrix(-0.7071 -0.7071 0.7071 -0.7071 -59.4437 748.6902)" style="fill:#4D4D4D;" width="75.034" height="17.3"/>
	
		<rect x="103.694" y="415.856" transform="matrix(-0.7071 -0.7071 0.7071 -0.7071 -97.0972 808.7924)" style="fill:#4D4D4D;" width="30.527" height="17.3"/>
	
		<rect x="72.23" y="384.393" transform="matrix(-0.7071 -0.7071 0.7071 -0.7071 -128.5713 732.829)" style="fill:#4D4D4D;" width="30.516" height="17.3"/>
	<rect x="62.567" y="218.484" style="fill:#4D4D4D;" width="17.3" height="75.035"/>
	<rect x="0" y="218.484" style="fill:#4D4D4D;" width="17.3" height="75.035"/>
	<rect x="31.289" y="218.484" style="fill:#4D4D4D;" width="17.3" height="30.517"/>
	<rect x="31.289" y="262.991" style="fill:#4D4D4D;" width="17.3" height="30.517"/>
	<rect x="494.704" y="218.484" style="fill:#4D4D4D;" width="17.3" height="30.517"/>
	<rect x="494.704" y="262.991" style="fill:#4D4D4D;" width="17.3" height="30.517"/>
	<rect x="432.136" y="218.484" style="fill:#4D4D4D;" width="17.3" height="30.517"/>
	<rect x="432.136" y="262.991" style="fill:#4D4D4D;" width="17.3" height="30.517"/>
	<rect x="463.414" y="218.484" style="fill:#4D4D4D;" width="17.3" height="75.035"/>
</g>
</svg>